#N canvas 1159 150 703 592 12;
#X obj 41 79 comport;
#X msg 37 18 devices;
#X msg 308 21 close;
#X obj 58 218 list trim;
#X obj 58 242 route bouton angle;
#X obj 143 291 nbx 5 17 -1e+37 1e+37 0 0 empty empty empty 0 -10 0 12 #fcfcfc #000000 #000000 0 256;
#X obj 28 139 pdchoco/slip_parse;
#X obj 57 168 oscparse;
#X text 248 309 Code pour envoyer OSC à Touch Designer;
#X obj 262 471 netsend -u -b;
#X msg 348 381 disconnect;
#X msg 457 382 connect 127.0.0.1 8001;
#X obj 152 377 oscformat -f i alpha;
#X text 242 356 /alpha i;
#X obj 148 332 nbx 5 17 -1e+37 1e+37 0 0 empty empty empty 0 -10 0 12 #fcfcfc #000000 #000000 0 256;
#X text 71 -13 Code pour recevoir les données du M5Atom;
#X msg 128 20 baud 115200 \, open 4;
#X obj 11 425 oscformat -f i beta;
#X text 152 425 /beta i;
#X obj 28 332 nbx 5 17 -1e+37 1e+37 0 0 empty empty empty 0 -10 0 12 #fcfcfc #000000 #000000 0 256;
#X obj 58 283 nbx 5 17 -1e+37 1e+37 0 0 empty empty empty 0 -10 0 12 #fcfcfc #000000 #000000 0 256;
#X connect 0 0 6 0;
#X connect 1 0 0 0;
#X connect 2 0 0 0;
#X connect 3 0 4 0;
#X connect 4 0 20 0;
#X connect 4 1 5 0;
#X connect 5 0 14 0;
#X connect 6 0 7 0;
#X connect 7 0 3 0;
#X connect 10 0 9 0;
#X connect 11 0 9 0;
#X connect 12 0 9 0;
#X connect 14 0 12 0;
#X connect 16 0 0 0;
#X connect 17 0 9 0;
#X connect 19 0 17 0;
#X connect 20 0 19 0;
